<svg height="16" viewBox="0 0 16 16" width="16" xmlns="http://www.w3.org/2000/svg"><g fill="none" fill-rule="evenodd"><path d="m0 0h16v16h-16z" fill="#fff"/><path d="m8.25557507 0v.55274884h.66450029l.87201253.19872702.69512401.28199984 1.3115858.78895779.666058.6158388.6361196 1.12164408.2024031.62073314.1695052.8779907.0926132.65904849.0835704 1.32800362v.43645799l.3809001-.43645799.3019379.05576444.1611561.38069355.0486304.67079326v.62163331l-.2097865.3745252-.0923384.67770929.1495048.26315213v.3156454l-.1495048.2397248-.2686351.0926811-.3218645-.0926811-.0835704.1457968v.6821649 1.0206762.4470501l-.4645215.3120939-1.8223134.8626977-.8430088.381784-.93506681.4916305-.92718506.5549652-.42969772.455807h7.85629649v-16z" fill="#000"/><path d="m8.25557507 0v.55274884h-.40420156l-.59939695.16129468-.77330628.39797986-.92739384.64797682-.5628793.66537143-.54055683.81390597-.49594866 1.03782939-.06983587.17657832-.53059078 2.65469793-.04894762.51661676-.06583001 1.75049307v1.02661303l.23010427 1.5235178.33719066 1.237518.38621184.8928621.60855394.8728196.18964906.3448681-1.18441484.7263083h-3.8039823v-16z" fill="#5f5f5f"/><path d="m13.6586386 7.07147556-.719894-.70471915-.7722528-.41992957-.2768946.70971442-.1624876.54049587-.3212144.27978284-.4363496.34818569-.7182793.08980391h-.47481534l-.62898212-.18594274-.52906587-.30061472-.34682632-.4974339-.27157665-.48444445-.21387508-.5761235-.16775515-.36347271h-.25217514l-.27058294.09218584-.06916082.34786345-.31433025.49954692-.29003825.5650247-.20825113.41685365-.35190835.30061472-.72618523.18594274h-.63435307l-.66765157-.18594274-.31403047-.30061472-.37774343-.41685365-.15041648-.77098581-.16871175-.64144926-.24442678-.32211831.12163058-.44647801.44192443-.22711257.6917739-.14956919.54308053-.14669204h.82931781.65579153l.56015948.14669204.29003825.09274149h.48919108.58481322l.34316334-.09274149.6435584-.14669204.52504383-.12634376h.80888881.8627663l.757564.12634376.1624876.14669204h.3798751l.4857115.37668176.3386398.37668177.3128946.29972871.2176931.22167606z" fill="#000"/><g fill="#333"><path d="m8.12928826 5.49647365c.22103333.96825154.46481977 1.50557069.73135931 1.61195743.26653955.10638675.99865877.21299376 2.19635763.31982103l.6509416-.91674318.1816504-.67373867-.1816504-.9270845-.4308333.19605558-.2928609-.50348684-.7233638.55720884-.1498335-.24977758-.96926791-.03334386-.33446535.06615195-.06042899.26355499h-.61760479z"/><path d="m6.59051301 5.36068187-.08517548.65507143-.30449076.65943263-.16489945.31278364-.26986551.19532871-.46139469.19166134-.59467548.10186035-.60442209-.04856786-.38385131-.24495383-.20203569-.29434768.6894654-.8731973.80922455-.39723802.74768931-.34158819v-.67367259l.57736285.12535134.24706835.26794922z"/><path d="m6.45085563 8.66375905.40215511.255317-.35827884.244683-.28090066-.244683z"/><path d="m7.52440362 8.66375905h.39515077l.45138376.49089884-.31278364.16955801-.32940244-.16955801h-.52744037c.21539461-.32726589.32309192-.49089884.32309192-.49089884z"/><path d="m5.43449877 11.5555623 1.01863657-.61777.3998754.0538541.56685634-.2005159.70942118.1466618.69954241.3414948.46905982.3878821-.55139391-.2653721-.74649658-.3110656-.90642966-.0543828-.640435.0543828-.95976043.5190153z"/></g><path d="m5.43449877 11.5555623.10404095-.3750298.8671511-.6199176.18482219-.0740742.37509588.1291178.45425819-.1291178 1.40896359.7927464-1.40896359-.4881566-.56685634.2005159-.3998754-.0538541z" fill="#5f5f5f"/><path d="m3.51970255 6.8889506-.28301518-.77735011v-.79611647l.52770469-.52122897.70135958-.19100055.90015742-.0568277.40017275.0568277v.67367259l-1.55691386.73882621z" fill="#5f5f5f"/><path d="m8.12928826 5.20704884h.61760479l.06042899-.26355499.3784659-.07103463.92526736.03822654.1498335.24977758.7233638-.55720884.2928609.50348684.4499961-.20158967-.6378249-.40732578-.4764937-.04414058h-1.1621265l-.83417781.24217852-.36792634.29801505z" fill="#5f5f5f"/><path d="m4.98839714 15.2736917.44610163.7263083h-1.63051647z" fill="#000"/></g></svg>