<svg height="32" viewBox="0 0 32 32" width="32" xmlns="http://www.w3.org/2000/svg"><g fill="none" fill-rule="evenodd"><path d="m0 0h32v32h-32z" fill="#fff"/><path d="m16.5111501 0v1.10549768h1.3290006l1.7440251.39745404 1.390248.56399968 2.6231717 1.57791558 1.3321159 1.2316776 1.2722392 2.24328815.4048062 1.24146629.3390104 1.75598138.1852264 1.318097.1671407 2.6560072v.872916l.7618002-.872916.603876.1115289.3223122.7613871.0972606 1.3415865v1.2432667l-.4195728.7490504-.1846769 1.3554185.2990095.5263042v.6312908l-.2990095.4794496-.5372701.1853623-.6437292-.1853623-.1671407.2915938v1.3643297 2.0413524.8941002l-.929043.6241879-3.6446267 1.7253954-1.6860176.7635678-1.8701337.983261-1.8543701 1.1099305-.8593955.911614h15.712593v-32z" fill="#000"/><path d="m16.5111501 0v1.10549768h-.8084031l-1.1987939.32258935-1.5466125.79595973-1.8547877 1.29595364-1.12575862 1.33074287-1.08111365 1.62781192-.99189733 2.07565879-.13967173.35315663-1.06118157 5.30939589-.09789525 1.0332335-.13166001 3.5009861v2.053226l.46020853 3.0470356.67438133 2.4750361.77242368 1.7857241 1.21710788 1.7456393.37929812.6897362-2.36882968 1.4526166h-7.6079646v-32z" fill="#5f5f5f"/><path d="m27.3172773 14.1429511-1.4397881-1.4094383-1.5445056-.8398591-.5537893 1.4194288-.3249751 1.0809918-.6424287.5595656-.8726994.6963714-1.4365585.1796078h-.9496307l-1.2579642-.3718854-1.0581318-.6012295-.6936526-.9948678-.5431533-.9688889-.4277502-1.152247-.3355103-.7269454h-.5043502l-.5411659.1843717-.1383217.6957269-.6286605.9990938-.5800765 1.1300494-.4165022.8337073-.7038167.6012295-1.4523705.3718854h-1.26870612l-1.33530314-.3718854-.62806095-.6012295-.75548686-.8337073-.30083295-1.5419716-.3374235-1.2828985-.48885356-.6442366.24326116-.89295606.88384885-.45422514 1.38354781-.29913839 1.08616105-.29338406h1.65863561 1.3115831l1.1203189.29338406.5800765.18548298h.9783822 1.1696264l.6863267-.18548298 1.2871168-.29338406 1.0500877-.25268753h1.6177777 1.7255324l1.5151281.25268753.3249751.29338406h.7597504l.9714229.75336353.6772795.75336356.6257894.5994574.435386.4433521z" fill="#000"/><g fill="#333"><path d="m16.2585765 10.9929473c.4420667 1.9365031.9296396 3.0111414 1.4627186 3.2239149.5330791.2127735 1.9973176.4259875 4.3927154.639642l1.301883-1.8334863.3633008-1.3474774-.3633008-1.85416898-.8616666.39211118-.5857218-1.0069737-1.4467275 1.1144177-.2996671-.49955518-1.9385357-.06668772-.6689307.1323039-.120858.52711h-1.2352096z"/><path d="m13.181026 10.7213637-.1703509 1.3101429-.6089816 1.3188653-.3297989.6255672-.539731.3906575-.9227894.3833226-1.18935092.2037207-1.20884418-.0971357-.76770261-.4899076-.4040714-.5886954 1.37893081-1.7463946 1.6184491-.794476 1.4953786-.6831764v-1.3473452l1.1547257.25070267.4941367.53589846z"/><path d="m12.9017113 17.3275181.8043102.5013393-.7165577.4804584-.5618013-.4804584z"/><path d="m15.0488072 17.3275181h.7903016l.9027675.9817977-.6255673.339116-.6588049-.339116h-1.0548807c.4307892-.6545318.6461838-.9817977.6461838-.9817977z"/><path d="m10.8689975 23.1111245 2.0372732-1.23554.7997508.1077083 1.1337127-.4010317 1.4188423.2933234 1.3990848.6829897.9381197.7757642-1.1027878-.5307443-1.4929932-.6221312-1.8128593-.1087655-1.28087.1087655-1.9195209 1.0380307z"/></g><g fill="#5f5f5f"><path d="m10.8689975 23.1111245.2080819-.7500596 1.7343022-1.2398351.3696444-.1481485.7501918.2582357.9085164-.2582357 2.8179271 1.5854929-2.8179271-.9763131-1.1337127.4010317-.7997508-.1077083z"/><path d="m7.03940509 13.7779012-.56603035-1.5547002v-1.592233l1.05540938-1.0424579 1.40271916-.3820011 1.80031482-.11365541.8003455.11365541v1.3473452l-3.1138277 1.4776524z"/><path d="m16.2585765 10.4140977h1.2352096l.120858-.52711.7569318-.14206926 1.8505346.07645308.2996671.49955518 1.4467275-1.1144177.5857218 1.0069737.8999923-.40317936-1.2756498-.81465155-.9529874-.08828118h-2.324253l-1.6683556.48435705-.7358527.59603009z"/></g><path d="m9.97679428 30.5473834.89220322 1.4526166h-3.2610329z" fill="#000"/></g></svg>